<svg width="15" height="15" viewBox="0 0 15 15" fill="none" xmlns="http://www.w3.org/2000/svg">
<path d="M12.5 1.875C12.5 1.52982 12.2202 1.25001 11.875 1.25001H10V0H8.75001V1.25001H6.87501V0H5.625V1.25001H3.75V0H2.49999V1.25001H0.62499C0.279814 1.25001 0 1.52982 0 1.875V3.12501H12.5V1.875Z" fill="black"/>
<path d="M9.98883 7.05929C10.398 6.93653 10.8229 6.87445 11.25 6.87498C11.6734 6.87536 12.0945 6.93747 12.5 7.05935V3.75H0V11.875C0 12.2202 0.279814 12.5 0.62499 12.5H7.05938C6.36592 10.1887 7.67748 7.75277 9.98883 7.05929ZM8.75001 5.00001H10V6.25002H8.75001V5.00001V5.00001ZM5.625 5.00001H6.87501V6.25002H5.625V5.00001ZM3.75 11.25H2.49999V9.99999H3.75V11.25ZM3.75 8.75001H2.49999V7.5H3.75V8.75001ZM3.75 6.24999H2.49999V4.99998H3.75V6.24999ZM5.625 7.5H6.87501V8.75001H5.625V7.5Z" fill="black"/>
<path d="M11.25 7.5C9.17895 7.5 7.5 9.17895 7.5 11.25C7.5 13.3211 9.17895 15 11.25 15C13.3211 15 15 13.3211 15 11.25C14.9976 9.17994 13.3201 7.5024 11.25 7.5ZM11.6919 11.6919C11.5241 11.8584 11.2771 11.9168 11.0525 11.8431L9.17751 11.2182L9.57313 10.0307L11.0812 10.5307L12.6831 8.92881L13.5669 9.81255L11.6919 11.6919Z" fill="black"/>
</svg>
