<svg width="15" height="15" viewBox="0 0 15 15" fill="none" xmlns="http://www.w3.org/2000/svg">
<g clip-path="url(#clip0)">
<path d="M14.78 2.19329L12.8066 0.219944C12.6647 0.0781194 12.4758 0 12.2746 0C12.0735 0 11.8846 0.0780839 11.7426 0.21998L3.06217 8.90038C2.76912 9.19375 2.76916 9.67108 3.06228 9.96448L3.44974 10.3518L0.137048 13.6645C0.10395 13.6944 0.00664757 13.7942 0.000704087 13.9377C-0.00200073 14.0042 0.0144061 14.1031 0.108221 14.1968L0.80037 14.8888C0.892227 14.9807 0.987607 15 1.05146 15C1.20193 15 1.30464 14.8985 1.33688 14.8618L4.6483 11.5503L5.03573 11.9377C5.17759 12.0797 5.3665 12.1579 5.56769 12.1579C5.7688 12.1579 5.95778 12.0797 6.09968 11.9378L14.78 3.25742C14.9222 3.11528 15.0005 2.92636 15.0005 2.72543C15.0004 2.52473 14.9222 2.33579 14.78 2.19329Z" fill="black"/>
<path d="M12.2696 8.79173C11.3821 8.79173 10.6601 9.51374 10.6601 10.4012C10.6601 11.2887 11.3821 12.0107 12.2696 12.0107C13.1571 12.0107 13.8791 11.2887 13.8791 10.4012C13.8791 9.51374 13.1571 8.79173 12.2696 8.79173Z" fill="black"/>
</g>
<defs>
<clipPath id="clip0">
<rect width="15" height="15" fill="white"/>
</clipPath>
</defs>
</svg>
