<svg width="15" height="16" viewBox="0 0 15 16" fill="none" xmlns="http://www.w3.org/2000/svg">
<path d="M14.7517 2.01249L14.5778 1.28209H11.6883V0H3.22851V1.28209H0.422145L0.248277 2.01249C0.158781 2.38828 -0.57992 5.74282 1.01551 7.7628C1.52315 8.40546 2.49028 9.17161 4.21479 9.17161H4.26139C4.74428 9.72896 5.37008 10.1584 6.08221 10.4034V12.3233H3.9612V15.1589H11.0388V12.3233H8.91785V10.3749C9.59571 10.1257 10.1913 9.70724 10.6554 9.17161H10.7853C12.5097 9.17161 13.4768 8.40553 13.9846 7.7628C15.5799 5.74275 14.8412 2.38828 14.7517 2.01249ZM3.22824 7.11103C2.91813 6.99827 2.70407 6.8327 2.50916 6.5868C1.83433 5.73534 1.84775 4.19703 1.97265 3.18317H3.22851L3.22824 7.11103ZM12.4927 6.58437C12.2975 6.83148 12.0469 7.01061 11.7358 7.12378V3.1831H13.0262C13.147 4.18617 13.1621 5.73689 12.4927 6.58437Z" fill="black"/>
</svg>
