<svg width="15" height="15" viewBox="0 0 15 15" fill="none" xmlns="http://www.w3.org/2000/svg">
<path d="M8.0127 2.34375C7.52807 2.34375 7.13379 1.94947 7.13379 1.46484C7.13379 0.980215 7.52807 0.585938 8.0127 0.585938C8.49732 0.585938 8.8916 0.980215 8.8916 1.46484C8.8916 1.94947 8.49732 2.34375 8.0127 2.34375Z" fill="black"/>
<path d="M11.7594 2.99531C11.6298 2.91524 11.468 2.90798 11.3318 2.97606L10.6494 3.31726V5.76475L11.3318 6.10594C11.3938 6.13696 11.4611 6.15231 11.5283 6.15231C11.6087 6.15231 11.6888 6.13031 11.7594 6.08669C11.8889 6.00662 11.9678 5.86517 11.9678 5.71286V3.36911C11.9678 3.21683 11.8889 3.07538 11.7594 2.99531Z" fill="black"/>
<path d="M9.38145 2.566C9.05897 2.96605 8.56535 3.22266 8.0127 3.22266C7.44422 3.22266 6.93817 2.95116 6.61664 2.53128C6.24067 2.95497 5.69265 3.22266 5.08301 3.22266C4.45699 3.22266 3.89596 2.94038 3.51946 2.4968C3.22734 2.67768 3.03223 3.001 3.03223 3.36914V5.71289C3.03223 6.27829 3.49222 6.73828 4.05762 6.73828H8.74512C9.31052 6.73828 9.77051 6.27829 9.77051 5.71289V3.36914C9.77051 3.04403 9.61822 2.75399 9.38145 2.566Z" fill="black"/>
<path d="M5.08301 2.34375C4.43684 2.34375 3.91113 1.81805 3.91113 1.17188C3.91113 0.525703 4.43684 0 5.08301 0C5.72918 0 6.25488 0.525703 6.25488 1.17188C6.25488 1.81805 5.72918 2.34375 5.08301 2.34375Z" fill="black"/>
<path d="M13.0664 8.55469H1.93359C1.20665 8.55469 0.615234 9.1461 0.615234 9.87305V13.6816C0.615234 14.4086 1.20665 15 1.93359 15H13.0664C13.7933 15 14.3848 14.4086 14.3848 13.6816V9.87305C14.3848 9.1461 13.7933 8.55469 13.0664 8.55469ZM3.93949 13.6792C3.60369 13.6811 3.37465 13.6819 3.21683 13.6819C2.88952 13.6819 2.86849 13.6783 2.83685 13.6729C2.62591 13.6367 2.47169 13.4537 2.47169 13.2397V10.3125C2.47169 10.0698 2.66845 9.87305 2.91114 9.87305C3.15384 9.87305 3.3506 10.0698 3.3506 10.3125V12.8026C3.52635 12.8022 3.73579 12.8014 3.93457 12.8003H3.93709C4.17864 12.8003 4.37514 12.9954 4.37648 13.2373C4.3778 13.48 4.18219 13.6778 3.93949 13.6792V13.6792ZM5.98796 13.2422C5.98796 13.4849 5.7912 13.6816 5.54851 13.6816C5.30581 13.6816 5.10905 13.4849 5.10905 13.2422V10.3125C5.10905 10.0698 5.30581 9.87305 5.54851 9.87305C5.7912 9.87305 5.98796 10.0698 5.98796 10.3125V13.2422ZM9.66009 10.4564L8.70354 13.3359C8.70319 13.3369 8.70287 13.3379 8.70252 13.339C8.63323 13.5425 8.44222 13.6802 8.22718 13.6817C8.22606 13.6817 8.22495 13.6817 8.22387 13.6817C8.01018 13.6817 7.81901 13.5468 7.74744 13.3452C7.74709 13.3443 7.74677 13.3433 7.74642 13.3423L6.74476 10.4566C6.66519 10.2273 6.78653 9.97693 7.01581 9.89736C7.245 9.8177 7.49549 9.93908 7.57509 10.1684L8.21616 12.0152L8.82601 10.1793C8.90253 9.94904 9.1512 9.82427 9.38159 9.90085C9.61189 9.97734 9.73658 10.2261 9.66009 10.4564V10.4564ZM11.9979 11.3379C12.2406 11.3379 12.4373 11.5346 12.4373 11.7773C12.4373 12.02 12.2406 12.2168 11.9979 12.2168H11.2939V12.8027H12.0889C12.3316 12.8027 12.5283 12.9995 12.5283 13.2422C12.5283 13.4849 12.3316 13.6816 12.0889 13.6816H10.8544C10.6117 13.6816 10.415 13.4849 10.415 13.2422V10.3125C10.415 10.0698 10.6117 9.87305 10.8544 9.87305H12.0889C12.3316 9.87305 12.5283 10.0698 12.5283 10.3125C12.5283 10.5552 12.3316 10.752 12.0889 10.752H11.2939V11.3379H11.9979Z" fill="black"/>
</svg>
