<svg width="15" height="15" viewBox="0 0 15 15" fill="none" xmlns="http://www.w3.org/2000/svg">
<g clip-path="url(#clip0)">
<path d="M12.8928 8.32935C12.8846 8.32935 12.8764 8.32807 12.8684 8.32807V9.20149V10.2265V13.2506H1.74878V2.13156H6.67064C6.67064 2.12194 6.66968 2.11265 6.66968 2.10304V0.443831C6.66968 0.423161 6.67224 0.403292 6.67256 0.382782H0.328316C0.147093 0.382782 0 0.529875 0 0.711098V14.6715C0 14.8529 0.147093 15 0.328316 15H14.2887C14.4703 15 14.617 14.8529 14.617 14.6715V8.47789V8.32679C14.5988 8.32727 14.5804 8.32967 14.5622 8.32967L12.8928 8.32935Z" fill="black"/>
<path d="M10.3792 2.71722L4.11605 8.98054C4.05596 9.04063 4.02216 9.12219 4.02216 9.20695C4.02216 9.29187 4.05596 9.37343 4.11605 9.43352L5.56535 10.8828C5.62801 10.9456 5.70988 10.9769 5.79192 10.9769C5.87396 10.9769 5.95584 10.9456 6.01849 10.8828L12.2815 4.61982L13.8215 6.15949C13.9088 6.24682 14.0375 6.27598 14.1538 6.23544C14.27 6.19474 14.3525 6.09123 14.3663 5.96881L14.9978 0.356672C15.0085 0.259892 14.9747 0.163111 14.9058 0.0942115C14.8369 0.0251514 14.7399 -0.00897815 14.6435 0.00239835L9.03166 0.633874C8.90908 0.647654 8.80573 0.730334 8.76504 0.846343C8.72434 0.962671 8.7543 1.09182 8.84131 1.17882L10.3792 2.71722Z" fill="black"/>
</g>
<defs>
<clipPath id="clip0">
<rect width="15" height="15" fill="white"/>
</clipPath>
</defs>
</svg>
