<svg width="15" height="15" viewBox="0 0 15 15" fill="none" xmlns="http://www.w3.org/2000/svg">
<path d="M15 0H0V15H15V0ZM4.87577 2.65111C6.04188 2.65111 6.98715 3.59639 6.98715 4.76247C6.98715 5.92858 6.04188 6.87386 4.87577 6.87386C3.70968 6.87386 2.76441 5.92858 2.76441 4.76247C2.76441 3.59639 3.70968 2.65111 4.87577 2.65111ZM4.88271 12.3635C3.7166 12.3635 2.7713 11.4182 2.7713 10.2521C2.7713 9.08605 3.7166 8.14074 4.88271 8.14074C6.04877 8.14074 6.9941 9.08605 6.9941 10.2521C6.99407 11.4182 6.04877 12.3635 4.88271 12.3635ZM10.1173 2.65111C11.2834 2.65111 12.2287 3.59639 12.2287 4.76247C12.2287 5.92858 11.2834 6.87386 10.1173 6.87386C8.95123 6.87386 8.0059 5.92858 8.0059 4.76247C8.0059 3.59639 8.95123 2.65111 10.1173 2.65111ZM10.1242 12.3635C8.95812 12.3635 8.01282 11.4182 8.01282 10.2521C8.01282 9.08605 8.95809 8.14074 10.1242 8.14074C11.2903 8.14074 12.2356 9.08605 12.2356 10.2521C12.2356 11.4182 11.2903 12.3635 10.1242 12.3635Z" fill="black"/>
</svg>
