<svg width="15" height="10" viewBox="0 0 15 10" fill="none" xmlns="http://www.w3.org/2000/svg">
<path d="M0 1.25V8.75C0.000372204 9.08141 0.132188 9.39913 0.366528 9.63347C0.600868 9.86781 0.918594 9.99963 1.25 10H6.875V0H1.25C0.918594 0.000372204 0.600868 0.132188 0.366528 0.366528C0.132188 0.600868 0.000372204 0.918594 0 1.25H0ZM3.125 1.875C3.62212 1.87554 4.09872 2.07325 4.45023 2.42477C4.80175 2.77628 4.99946 3.25288 5 3.75V6.25C5 6.74728 4.80246 7.22419 4.45083 7.57582C4.09919 7.92746 3.62228 8.125 3.125 8.125C2.62772 8.125 2.15081 7.92746 1.79918 7.57582C1.44754 7.22419 1.25 6.74728 1.25 6.25V3.75C1.25054 3.25288 1.44825 2.77628 1.79977 2.42477C2.15128 2.07325 2.62788 1.87554 3.125 1.875V1.875Z" fill="black"/>
<path d="M3.12498 6.87499C3.29074 6.87499 3.44971 6.80914 3.56692 6.69193C3.68413 6.57472 3.74998 6.41575 3.74998 6.24999V3.74999C3.74998 3.58423 3.68413 3.42526 3.56692 3.30805C3.44971 3.19084 3.29074 3.12499 3.12498 3.12499C2.95922 3.12499 2.80025 3.19084 2.68304 3.30805C2.56583 3.42526 2.49998 3.58423 2.49998 3.74999V6.24999C2.49998 6.41575 2.56583 6.57472 2.68304 6.69193C2.80025 6.80914 2.95922 6.87499 3.12498 6.87499Z" fill="black"/>
<path d="M13.75 0H8.12498V10H13.75C14.0814 9.99963 14.3991 9.86781 14.6334 9.63347C14.8678 9.39913 14.9996 9.08141 15 8.75V1.25C14.9996 0.918594 14.8678 0.600868 14.6334 0.366528C14.3991 0.132188 14.0814 0.000372204 13.75 0V0ZM13.75 6.25C13.75 6.74728 13.5524 7.22419 13.2008 7.57582C12.8492 7.92746 12.3723 8.125 11.875 8.125C11.3777 8.125 10.9008 7.92746 10.5492 7.57582C10.1975 7.22419 9.99998 6.74728 9.99998 6.25V3.75C9.99998 3.25272 10.1975 2.7758 10.5492 2.42417C10.9008 2.07254 11.3777 1.875 11.875 1.875C12.3723 1.875 12.8492 2.07254 13.2008 2.42417C13.5524 2.7758 13.75 3.25272 13.75 3.75V6.25Z" fill="black"/>
<path d="M11.875 3.12499C11.7092 3.12499 11.5503 3.19084 11.4331 3.30805C11.3158 3.42526 11.25 3.58423 11.25 3.74999V6.24999C11.25 6.41575 11.3158 6.57472 11.4331 6.69193C11.5503 6.80914 11.7092 6.87499 11.875 6.87499C12.0408 6.87499 12.1997 6.80914 12.3169 6.69193C12.4342 6.57472 12.5 6.41575 12.5 6.24999V3.74999C12.5 3.58423 12.4342 3.42526 12.3169 3.30805C12.1997 3.19084 12.0408 3.12499 11.875 3.12499Z" fill="black"/>
</svg>
