<svg width="15" height="15" viewBox="0 0 15 15" fill="none" xmlns="http://www.w3.org/2000/svg">
<g clip-path="url(#clip0)">
<path d="M14.6471 5.79208L13.4942 5.54146C13.3939 5.23453 13.2698 4.93515 13.1232 4.64676L13.7614 3.65398C13.8754 3.4766 13.8503 3.24371 13.7013 3.09471L11.9053 1.29868C11.7563 1.14967 11.5234 1.12461 11.346 1.23859L10.3532 1.87683C10.0648 1.73023 9.76547 1.60606 9.45854 1.50581L9.20792 0.352936C9.16317 0.146942 8.98075 0 8.76995 0H6.23005C6.01925 0 5.83683 0.146942 5.79208 0.352936L5.54146 1.50581C5.23453 1.60606 4.93515 1.73023 4.64676 1.87683L3.65398 1.23859C3.4766 1.12461 3.24371 1.14967 3.09471 1.29868L1.29868 3.09471C1.14967 3.24371 1.12461 3.4766 1.23859 3.65398L1.87683 4.64676C1.73023 4.93515 1.60606 5.23453 1.50581 5.54146L0.352936 5.79208C0.146942 5.83694 0 6.01925 0 6.23005V8.76995C0 8.98075 0.146942 9.16306 0.352936 9.20792L1.50581 9.45854C1.60606 9.76547 1.73023 10.0648 1.87683 10.3532L1.23859 11.346C1.12461 11.5234 1.14967 11.7563 1.29868 11.9053L3.09471 13.7013C3.24371 13.8503 3.4766 13.8754 3.65398 13.7614L4.64676 13.1232C4.93515 13.2698 5.23453 13.3939 5.54146 13.4942L5.79208 14.6471C5.83683 14.8531 6.01925 15 6.23005 15H8.76995C8.98075 15 9.16317 14.8531 9.20792 14.6471L9.45854 13.4942C9.76547 13.3939 10.0648 13.2698 10.3532 13.1232L11.346 13.7614C11.5234 13.8754 11.7563 13.8504 11.9053 13.7013L13.7013 11.9053C13.8503 11.7563 13.8754 11.5234 13.7614 11.346L13.1232 10.3532C13.2698 10.0648 13.3939 9.76547 13.4942 9.45854L14.6471 9.20792C14.8531 9.16306 15 8.98075 15 8.76995V6.23005C15 6.01925 14.8531 5.83694 14.6471 5.79208V5.79208ZM10.1892 7.5C10.1892 8.98281 8.98281 10.1892 7.5 10.1892C6.01719 10.1892 4.81075 8.98281 4.81075 7.5C4.81075 6.01719 6.01719 4.81075 7.5 4.81075C8.98281 4.81075 10.1892 6.01719 10.1892 7.5V7.5Z" fill="black"/>
</g>
<defs>
<clipPath id="clip0">
<rect width="15" height="15" fill="white"/>
</clipPath>
</defs>
</svg>
