<svg width="23" height="23" viewBox="0 0 23 23" fill="none" xmlns="http://www.w3.org/2000/svg">
<g clip-path="url(#clip0)">
<path d="M21.1438 7.15271H20.521V13.9985C20.521 15.0643 19.9004 16.0281 18.6562 16.0281H6.46703V16.3536C6.46703 17.2959 7.53882 18.2472 8.63947 18.2472H17.9587L21.524 20.3434L21.0069 18.2472H21.1438C22.2437 18.2472 22.74 17.2982 22.74 16.3536V8.77779C22.74 7.83543 22.2437 7.15271 21.1438 7.15271Z" fill="white"/>
<path d="M16.8366 2.39658H2.67912C1.4335 2.39658 0 3.50314 0 4.56976V13.1501C0 14.1323 1.21456 14.8417 2.37955 14.9512L1.62138 17.8293L6.4796 14.9711H16.8366C18.0822 14.9711 19.2317 14.2159 19.2317 13.1501V6.20815V4.56976C19.2317 3.50314 18.0815 2.39658 16.8366 2.39658ZM4.83899 9.63953C4.1326 9.63953 3.56008 9.06702 3.56008 8.36062C3.56008 7.65423 4.1326 7.08171 4.83899 7.08171C5.54465 7.08171 6.1179 7.65423 6.1179 8.36062C6.1179 9.06702 5.54465 9.63953 4.83899 9.63953ZM9.61585 9.63953C8.90945 9.63953 8.33694 9.06702 8.33694 8.36062C8.33694 7.65423 8.90945 7.08171 9.61585 7.08171C10.3222 7.08171 10.8948 7.65423 10.8948 8.36062C10.8948 9.06702 10.3222 9.63953 9.61585 9.63953ZM14.3934 9.63953C13.6871 9.63953 13.1138 9.06702 13.1138 8.36062C13.1138 7.65423 13.6871 7.08171 14.3934 7.08171C15.0984 7.08171 15.6724 7.65423 15.6724 8.36062C15.6724 9.06702 15.0984 9.63953 14.3934 9.63953Z" fill="white"/>
</g>
<defs>
<clipPath id="clip0">
<rect width="22.74" height="22.7407" fill="white"/>
</clipPath>
</defs>
</svg>
