<svg width="23" height="19" viewBox="0 0 23 19" fill="none" xmlns="http://www.w3.org/2000/svg">
<path d="M11.4201 3.66901L3.27427 10.3843C3.27427 10.3938 3.27189 10.4078 3.26712 10.4268C3.26246 10.4456 3.25998 10.4593 3.25998 10.469V17.269C3.25998 17.5146 3.34974 17.7273 3.52922 17.9065C3.70864 18.0858 3.92112 18.176 4.16669 18.176H9.60654V12.7358H13.2336V18.1762H18.6734C18.9189 18.1762 19.1317 18.0862 19.3109 17.9065C19.4904 17.7275 19.5804 17.5146 19.5804 17.269V10.469C19.5804 10.4313 19.5753 10.4029 19.5661 10.3843L11.4201 3.66901Z" fill="white"/>
<path d="M22.6825 8.85441L19.5801 6.27605V0.495953C19.5801 0.363814 19.5376 0.255147 19.4524 0.170098C19.3678 0.0851481 19.2592 0.0426733 19.1267 0.0426733H16.4068C16.2745 0.0426733 16.1658 0.0851481 16.0808 0.170098C15.9959 0.255147 15.9534 0.363864 15.9534 0.495953V3.25845L12.4968 0.36833C12.1949 0.12276 11.836 0 11.4203 0C11.0048 0 10.6459 0.12276 10.3437 0.36833L0.157423 8.85441C0.0629955 8.92983 0.0112418 9.03135 0.0016155 9.15888C-0.00796117 9.2863 0.0250362 9.3976 0.100707 9.49198L0.979032 10.5403C1.0547 10.6253 1.15374 10.6773 1.27655 10.6963C1.38994 10.7058 1.50332 10.6726 1.6167 10.5971L11.42 2.4226L21.2235 10.5971C21.2992 10.663 21.3982 10.6959 21.521 10.6959H21.5636C21.6862 10.6772 21.785 10.6249 21.8611 10.5402L22.7395 9.49193C22.815 9.39735 22.8481 9.28625 22.8383 9.15868C22.8286 9.0315 22.7767 8.92998 22.6825 8.85441Z" fill="white"/>
</svg>
