<svg width="20" height="20" viewBox="0 0 20 20" fill="none" xmlns="http://www.w3.org/2000/svg">
<path d="M10.4673 10.4665H14.6306C14.605 10.9038 14.5397 11.338 14.454 11.7694C13.7734 12.5103 12.9731 13.1939 12.0684 13.7914H10.4671V10.4665H10.4673ZM13.9185 6.20772H10.4673V9.53245H14.6405C14.5962 8.40104 14.3541 7.28307 13.9185 6.20772ZM9.53266 15.104V14.7268H6.62342C6.81048 15.0702 7.02022 15.4074 7.24633 15.7418C8.00592 15.609 8.76992 15.3977 9.53266 15.104ZM9.53266 6.20772H6.08154C5.64569 7.2837 5.40383 8.40104 5.35953 9.53245H9.53266C9.53266 9.53266 9.53266 6.20772 9.53266 6.20772ZM9.53266 10.4665H5.3694C5.43638 11.5935 5.70532 12.7108 6.16951 13.7921H9.53266V10.4665ZM10.4673 1.43352V5.2722H13.4855C12.7839 3.9214 11.7694 2.63127 10.4673 1.43352ZM6.21906 15.8726C5.98245 15.4954 5.76221 15.1145 5.57137 14.7282H2.65835C2.883 15.0761 3.13766 15.3977 3.4022 15.7057C4.28817 15.8959 5.23861 15.9524 6.21906 15.8726ZM16.0591 9.53182C16.6459 8.44618 17.0095 7.31603 17.1132 6.20709H14.9176C15.3144 7.28748 15.5344 8.40419 15.5735 9.53182C15.5737 9.53182 16.0591 9.53182 16.0591 9.53182ZM17.1176 4.95896C15.8493 3.16936 13.9709 1.91682 11.8289 1.4606C12.9987 2.66423 13.9056 3.9447 14.5309 5.27241H17.1485C17.1441 5.16575 17.126 5.06351 17.1176 4.95896ZM9.53266 1.43352C8.22909 2.6319 7.21547 3.92203 6.51445 5.2722H9.53266V1.43352ZM11.5862 18.5881C13.9575 18.1537 16.0267 16.7668 17.3416 14.7268H14.4286C13.7629 16.0801 12.8072 17.3763 11.5862 18.5881ZM2.42993 15.4347C1.32624 13.9019 0.668052 12.0279 0.668052 9.99916C0.668052 4.85377 4.85314 0.667213 10 0.667213C12.7388 0.667213 15.1943 1.85887 16.9035 3.74189C16.7599 3.24516 16.5504 2.76732 16.2753 2.31509C16.234 2.2498 16.1874 2.19038 16.1445 2.12719C14.4473 0.799479 12.3172 0 10 0C4.48573 0 0 4.48573 0 10C0 11.7995 0.484558 13.4849 1.31931 14.9455C1.67034 15.1364 2.04069 15.301 2.42993 15.4347ZM20 10C20 15.5136 15.5143 20 10 20C6.69102 20 3.7547 18.3809 1.93319 15.8953C1.32834 15.4769 0.7978 14.9711 0.373286 14.3671C2.99868 16.9669 7.9591 17.1441 12.2246 14.5731C17.0425 11.6695 19.1472 6.36266 16.9224 2.72071C16.4647 1.97015 15.851 1.35689 15.1349 0.869392C16.2957 1.41274 17.2696 2.22565 17.9337 3.31213C18.2492 3.82755 18.4695 4.37761 18.6204 4.94783C19.4951 6.4309 20 8.1554 20 10ZM19.3319 10C19.3319 8.9383 19.1501 7.92026 18.8195 6.96962C18.7962 7.47076 18.7166 7.97716 18.5902 8.48439C18.6517 8.82933 18.7 9.17785 18.7179 9.53266H18.2656C18.1447 9.8459 18.0095 10.1585 17.8531 10.4673H18.7172C18.6557 11.6328 18.3693 12.7507 17.8644 13.7929H15.2791C14.639 14.3782 13.9304 14.9214 13.1408 15.3977C13.056 15.4496 12.9687 15.4916 12.8824 15.5405C12.2408 16.5256 11.4352 17.4731 10.4644 18.3672V16.6345C10.1526 16.7389 9.84086 16.8315 9.52972 16.9087V18.3656C9.09849 17.9681 8.71155 17.5571 8.34331 17.1401C7.96246 17.1957 7.58666 17.231 7.21253 17.2482C7.58078 17.7036 7.97212 18.1529 8.41091 18.5873C7.14178 18.3551 5.96439 17.8411 4.94027 17.1063C4.46621 17.0198 4.0123 16.8951 3.57813 16.7366C5.25288 18.3362 7.50625 19.3311 9.99853 19.3311C15.1469 19.3319 19.3319 15.1454 19.3319 10ZM8.17115 1.45997C5.90267 1.94306 3.92224 3.31066 2.65604 5.27178H5.46913C6.09666 3.94386 7.00342 2.6636 8.17115 1.45997ZM2.13243 13.7921H5.15673C4.73515 12.7108 4.49245 11.5935 4.43094 10.4665H1.27963C1.34345 11.6319 1.62751 12.7501 2.13243 13.7921ZM1.2811 9.53182H4.42548C4.46453 8.40398 4.68476 7.28664 5.08135 6.20709H2.13243C1.62751 7.24927 1.34345 8.36808 1.2811 9.53182Z" fill="white"/>
</svg>
