<svg width="16" height="18" viewBox="0 0 16 18" fill="none" xmlns="http://www.w3.org/2000/svg">
<g clip-path="url(#clip0)">
<path d="M2.86615 0.57226C2.85317 0.405595 2.78032 0.251815 2.66385 0.145653C2.54712 0.0380915 2.39662 -0.0131685 2.24574 0.00293779L0.54433 0.180527C0.393828 0.195513 0.254921 0.276464 0.158368 0.405595C0.0616882 0.534585 0.0154282 0.70111 0.0295457 0.868195L0.109839 1.81356L2.9467 1.51833L2.86615 0.57226Z" fill="white"/>
<path d="M4.22408 17.6726C4.27841 17.607 4.30501 17.5184 4.29694 17.4296L4.01207 14.0686C2.72662 12.2887 2.51851 9.82889 3.48316 7.81392L3.00178 2.14844L0.164917 2.44381L1.44192 17.4913C1.45591 17.6543 1.57944 17.7785 1.72667 17.7778H4.01471C4.09475 17.7775 4.17089 17.7393 4.22408 17.6726Z" fill="white"/>
<path d="M6.56178 5.02937C7.49139 4.72643 8.47911 4.72293 9.41036 5.01957L9.43053 2.26749H6.58208L6.56178 5.02937Z" fill="white"/>
<path d="M7.35804 13.4297C5.62474 11.5177 5.00105 8.68842 5.74285 6.10287C5.52352 6.24083 5.31504 6.39895 5.11928 6.57542C5.07769 6.74292 5.03849 6.91127 5.00798 7.07863C4.98088 7.22597 4.86441 7.33171 4.72904 7.33185C4.71 7.33185 4.69084 7.32975 4.67206 7.32555C4.61559 7.31183 4.56429 7.27863 4.52572 7.23059C3.38157 8.73212 3.1243 10.8343 3.86623 12.6206C4.60815 14.407 6.21465 15.5536 7.98526 15.5606C7.97669 15.4965 7.98665 15.4311 8.01375 15.3736C8.05018 15.3001 8.11144 15.2456 8.18404 15.2222C8.25664 15.199 8.33467 15.2087 8.40084 15.2493C8.53471 15.3315 8.67462 15.4075 8.81479 15.4784C9.15852 15.4105 9.49407 15.2983 9.81461 15.1441C8.89017 14.7851 8.05043 14.199 7.35804 13.4297ZM4.39551 9.91418C4.33248 9.47889 4.30072 9.03856 4.30072 8.59753C4.30072 8.5415 4.30072 8.4859 4.30072 8.43044C4.30904 8.25831 4.43597 8.12274 4.59126 8.12022C4.66677 8.1219 4.73874 8.15691 4.79105 8.21756C4.84349 8.2782 4.87197 8.35943 4.87034 8.44347V8.59753C4.87059 9.0048 4.89983 9.41124 4.95807 9.81334C4.98302 9.98575 4.87752 10.1482 4.72223 10.1759C4.7071 10.1787 4.69172 10.1801 4.67635 10.1801C4.53681 10.1799 4.41782 10.0674 4.39551 9.91418ZM5.6773 12.8216C5.63407 12.8494 5.58491 12.864 5.53499 12.8637C5.43302 12.864 5.33861 12.8036 5.28768 12.7055C5.0647 12.2749 4.87739 11.8228 4.7279 11.3546C4.67761 11.1906 4.75538 11.0121 4.90235 10.9541C5.04945 10.8962 5.21105 10.9806 5.26487 11.1432C5.40289 11.5751 5.57596 11.992 5.78192 12.3889C5.81974 12.4618 5.82982 12.5483 5.81016 12.6296C5.79037 12.7106 5.74247 12.7798 5.6768 12.8216H5.6773ZM7.41325 14.9207C7.31329 15.0556 7.13392 15.075 7.01241 14.964C6.82561 14.7934 6.64221 14.6095 6.46977 14.4171C6.32746 14.2605 6.18982 14.0934 6.05847 13.9216C5.95663 13.7882 5.97125 13.5884 6.09125 13.4752C6.21125 13.362 6.39099 13.3783 6.49284 13.5116C6.61422 13.6699 6.74191 13.8246 6.87237 13.9693C7.03271 14.1475 7.20161 14.3175 7.37417 14.4758C7.49531 14.5868 7.51245 14.786 7.41275 14.9207H7.41325Z" fill="white"/>
<path d="M11.2135 13.5401C11.3379 13.5689 11.4676 13.587 11.5966 13.6059C12.478 12.3504 12.7762 10.7072 12.4015 9.17036C12.0268 7.6334 11.0228 6.38216 9.69145 5.79267H9.68981C9.6312 5.79057 9.5746 5.76788 9.52834 5.72782C9.03902 5.53357 8.52335 5.43357 8.00378 5.43259C7.89437 5.43259 7.78609 5.44169 7.6782 5.45023C7.62122 5.57908 7.56425 5.70793 7.51521 5.83959C7.47727 5.94449 7.39181 6.019 7.2911 6.03496C7.19026 6.05079 7.08955 6.00583 7.02665 5.9169C6.96388 5.82782 6.94863 5.70835 6.98657 5.60345C6.99199 5.58833 6.99854 5.57376 7.00421 5.5585C6.82321 5.60387 6.64472 5.66158 6.47014 5.73132C5.79969 7.51324 5.86183 9.53114 6.64006 11.258C7.41828 12.9849 8.83532 14.249 10.521 14.72C10.7403 14.5562 10.9464 14.3714 11.1371 14.1681C11.1237 14.1648 11.1086 14.164 11.0961 14.1608C10.9942 14.1402 10.9103 14.0599 10.8771 13.9508C10.8439 13.8419 10.8665 13.7214 10.9363 13.6363C11.006 13.5511 11.1119 13.5149 11.2126 13.5413L11.2135 13.5401ZM6.57943 8.00231V7.96463C6.5793 7.5673 6.61233 7.17094 6.678 6.78061C6.70712 6.60876 6.85598 6.4956 7.01064 6.52781C7.1653 6.56003 7.26715 6.72557 7.23803 6.89728C7.17879 7.24923 7.14904 7.60651 7.14917 7.96463C7.15232 8.14222 7.02804 8.29068 6.86833 8.30006H6.8643C6.79081 8.30328 6.71922 8.27359 6.66565 8.21757C6.61207 8.16155 6.58107 8.08396 6.57943 8.00231ZM7.38312 10.56C7.23778 10.6266 7.07127 10.55 7.01102 10.3887C6.86997 10.011 6.7627 9.61868 6.6906 9.21756C6.6601 9.04641 6.76006 8.88017 6.91409 8.846C7.06799 8.81168 7.21787 8.92233 7.24913 9.09319C7.31404 9.45411 7.41047 9.80719 7.53715 10.1472C7.59689 10.3084 7.52795 10.493 7.38312 10.56ZM8.63037 12.4203C8.51856 12.5432 8.33831 12.542 8.22764 12.4178C7.96874 12.1273 7.73542 11.81 7.53084 11.4702C7.46807 11.3765 7.45685 11.2519 7.50173 11.1461C7.5466 11.0405 7.64026 10.9708 7.74525 10.965C7.85038 10.9593 7.94971 11.0182 8.00378 11.1185C8.18769 11.425 8.39756 11.7111 8.63037 11.9731C8.74142 12.0967 8.74142 12.2968 8.63037 12.4203ZM10.4145 13.623C10.3848 13.7003 10.3288 13.7612 10.2585 13.7926C10.1885 13.8238 10.1099 13.8228 10.0405 13.7898C9.70166 13.629 9.37771 13.4318 9.07343 13.2011C8.95684 13.0976 8.932 12.9116 9.01633 12.7749C9.10078 12.6383 9.26578 12.5971 9.39473 12.6805C9.66826 12.8883 9.95955 13.0656 10.2643 13.21C10.4085 13.2786 10.4756 13.4639 10.4145 13.6242V13.623Z" fill="white"/>
<path d="M12.5253 7.81267C13.4908 9.82834 13.2826 12.2894 11.996 14.0699L11.7097 17.4297C11.7021 17.5186 11.7287 17.6071 11.783 17.6731C11.8372 17.7392 11.9141 17.7766 11.9945 17.7762H14.2825C14.4299 17.777 14.5535 17.6525 14.5674 17.4895L15.8431 2.4441L13.0067 2.14886L12.5253 7.81267Z" fill="white"/>
<path d="M15.4632 0.180514L13.7618 0.0032053C13.6113 -0.0134612 13.4611 0.0372385 13.3444 0.14424C13.2278 0.251242 13.1545 0.405582 13.1408 0.572947L13.0602 1.51986L15.8967 1.81523L15.9774 0.869162C16.0056 0.522387 15.7765 0.215388 15.4646 0.182055L15.4632 0.180514Z" fill="white"/>
<path d="M8.77118 16.1238C8.03934 16.2546 7.29048 16.2015 6.57943 15.9686V17.4598C6.57943 17.6345 6.70699 17.7761 6.8643 17.7761H9.14315C9.30046 17.7761 9.42802 17.6345 9.42802 17.4598V15.9686C9.23983 16.0278 9.04874 16.075 8.85576 16.1098C8.82891 16.1192 8.80093 16.1239 8.77282 16.1241L8.77118 16.1238Z" fill="white"/>
<path d="M9.44175 0.697892C9.44301 0.529967 9.38414 0.368344 9.27814 0.248597C9.17213 0.128991 9.02768 0.0609241 8.87654 0.0595235L7.16744 0.0446777H7.16253C6.8498 0.0446777 6.59556 0.324787 6.59291 0.672262L6.58636 1.63444H9.43481L9.44175 0.697892Z" fill="white"/>
</g>
<defs>
<clipPath id="clip0">
<rect width="16" height="17.7778" fill="white"/>
</clipPath>
</defs>
</svg>
